<?xml version="1.0" standalone="no"?>
<!DOCTYPE svg PUBLIC "-//W3C//DTD SVG 20010904//EN"
 "http://www.w3.org/TR/2001/REC-SVG-20010904/DTD/svg10.dtd">
<svg version="1.0" xmlns="http://www.w3.org/2000/svg"
 width="300.000000pt" height="96.000000pt" viewBox="0 0 300.000000 96.000000"
 preserveAspectRatio="xMidYMid meet">
<metadata>
Created by potrace 1.10, written by Peter Selinger 2001-2011
</metadata>
<g transform="translate(0.000000,96.000000) scale(0.100000,-0.100000)"
fill="#000000" stroke="none">
<path d="M2210 505 l0 -205 40 0 40 0 0 205 0 205 -40 0 -40 0 0 -205z"/>
<path d="M1450 501 l0 -199 97 0 97 -1 39 40 c39 39 39 39 35 106 -4 61 -7 68
-38 95 -43 36 -88 44 -127 24 l-30 -15 5 75 5 74 -42 0 -41 0 0 -199z m170 -1
c42 -42 36 -103 -15 -136 -25 -16 -27 -16 -53 3 -37 28 -43 95 -11 129 27 29
53 30 79 4z"/>
<path d="M187 678 c-22 -12 -22 -35 1 -46 25 -13 42 -4 42 23 0 27 -19 37 -43
23z"/>
<path d="M1772 678 c-17 -17 -15 -32 8 -53 17 -15 24 -16 45 -7 42 19 27 72
-20 72 -12 0 -26 -5 -33 -12z"/>
<path d="M316 665 c-3 -8 2 -21 10 -30 19 -19 19 -19 38 0 20 20 10 45 -19 45
-13 0 -25 -7 -29 -15z"/>
<path d="M460 656 c0 -29 22 -39 46 -22 24 18 11 46 -21 46 -20 0 -25 -5 -25
-24z"/>
<path d="M603 664 c-4 -11 1 -22 12 -31 16 -11 21 -11 33 1 8 8 12 22 9 30 -8
21 -46 21 -54 0z"/>
<path d="M313 568 c-46 -22 -29 -98 22 -98 52 0 75 65 33 94 -26 18 -26 18
-55 4z"/>
<path d="M475 568 c-57 -32 -40 -98 25 -98 48 0 66 54 30 90 -23 23 -28 24
-55 8z"/>
<path d="M973 566 c-35 -16 -53 -43 -53 -80 0 -33 27 -56 87 -78 55 -19 65
-35 29 -44 -17 -4 -35 0 -52 11 -26 17 -27 16 -52 -8 l-25 -25 34 -21 c75 -46
188 -13 189 54 0 37 -29 64 -85 81 -34 9 -55 21 -55 30 0 23 31 29 60 12 25
-14 28 -13 53 8 l27 23 -34 20 c-45 28 -85 34 -123 17z"/>
<path d="M1212 559 c-33 -17 -40 -24 -31 -35 16 -20 43 -26 71 -15 19 7 31 6
47 -5 34 -24 25 -31 -41 -36 -51 -4 -65 -9 -85 -32 -50 -59 -12 -136 67 -136
23 0 50 5 61 10 13 7 19 7 19 0 0 -5 17 -10 38 -10 l37 0 -3 113 c-3 99 -6
115 -25 134 -33 34 -101 40 -155 12z m108 -157 c0 -30 -35 -55 -65 -48 -50 13
-25 66 32 66 25 0 33 -4 33 -18z"/>
<path d="M2007 573 c-4 -6 -29 -8 -57 -5 l-50 5 0 -202 0 -201 41 0 40 0 -2
73 c-1 57 1 71 12 68 41 -13 89 -11 117 3 79 41 83 182 7 235 -36 24 -99 38
-108 24z m63 -73 c31 -31 28 -102 -6 -129 -34 -27 -45 -26 -74 4 -16 17 -24
37 -24 60 0 39 36 85 66 85 10 0 27 -9 38 -20z"/>
<path d="M2426 570 c-55 -17 -96 -76 -96 -137 0 -38 40 -105 70 -120 14 -7 51
-13 82 -13 45 0 62 5 83 23 l26 22 -25 24 c-23 22 -26 22 -48 7 -12 -9 -33
-16 -45 -16 -23 0 -63 32 -63 50 0 6 40 10 100 10 l100 0 0 28 c0 33 -31 86
-63 107 -31 20 -84 27 -121 15z m94 -80 c13 -24 16 -22 -45 -25 -63 -2 -71 2
-49 26 24 26 80 26 94 -1z"/>
<path d="M2604 568 c-2 -3 0 -8 4 -10 10 -4 92 -114 92 -123 0 -3 -17 -29 -38
-58 -59 -80 -59 -77 -8 -77 43 0 47 2 67 41 l21 42 24 -42 c24 -38 28 -41 70
-41 l46 0 -46 64 c-25 36 -46 68 -46 72 0 3 20 35 45 70 25 34 45 64 45 66 0
2 -20 2 -45 0 -38 -3 -48 -9 -66 -38 -11 -19 -24 -34 -28 -34 -4 0 -15 15 -23
34 -15 30 -22 34 -63 38 -26 2 -49 0 -51 -4z"/>
<path d="M1770 435 l0 -135 40 0 40 0 0 135 0 135 -40 0 -40 0 0 -135z"/>
<path d="M174 525 c-4 -9 0 -23 9 -32 21 -21 49 -9 45 19 -4 28 -45 38 -54 13z"/>
<path d="M603 524 c-3 -8 2 -23 11 -32 15 -15 17 -15 32 0 21 21 11 48 -16 48
-11 0 -23 -7 -27 -16z"/>
<path d="M295 390 c-15 -17 -16 -24 -7 -45 14 -30 33 -39 67 -31 29 7 42 45
25 75 -14 27 -61 28 -85 1z"/>
<path d="M456 394 c-21 -21 -20 -47 2 -67 33 -30 92 -11 92 29 0 49 -59 73
-94 38z"/>
<path d="M181 387 c-17 -21 -3 -49 23 -45 15 2 21 10 21 28 0 28 -26 38 -44
17z"/>
<path d="M610 385 c-17 -20 -5 -45 20 -45 11 0 23 7 26 15 6 15 -11 45 -26 45
-4 0 -13 -7 -20 -15z"/>
<path d="M182 248 c-17 -17 -15 -36 6 -47 13 -7 23 -6 30 1 17 17 15 45 -4 52
-20 8 -18 8 -32 -6z"/>
<path d="M333 253 c-21 -8 -16 -53 6 -53 30 0 45 25 26 44 -9 9 -17 16 -18 15
-1 0 -8 -3 -14 -6z"/>
<path d="M472 251 c-21 -13 -10 -46 16 -49 27 -4 40 22 22 43 -14 17 -20 18
-38 6z"/>
<path d="M610 245 c-17 -20 -5 -45 20 -45 11 0 23 7 26 15 6 15 -11 45 -26 45
-4 0 -13 -7 -20 -15z"/>
</g>
</svg>
